<svg width="80" height="38" viewBox="0 0 80 38" fill="none" xmlns="http://www.w3.org/2000/svg">
<path fill-rule="evenodd" clip-rule="evenodd" d="M55.4838 34.1974H69.1552C74.5775 34.1974 79.9998 30.983 79.9998 24.7713C79.9998 20.2103 77.3971 17.9516 74.6209 17.0394C76.9199 15.7797 78.4382 14.0856 78.4382 10.958C78.4382 7.78705 76.703 3.18262 68.5479 3.18262H51.5869V26.0678L55.4838 34.1974ZM66.1621 10.5671H61.1302V15.2584H66.1621C68.2009 15.2584 69.4155 14.7371 69.4155 12.6956C69.4155 11.1318 68.1141 10.5671 66.1621 10.5671ZM67.1164 21.0357H61.1302V26.8129H66.726C68.678 26.8129 70.4565 26.2482 70.4565 23.8591C70.4565 21.9913 69.3287 21.0357 67.1164 21.0357Z" fill="white"/>
<path fill-rule="evenodd" clip-rule="evenodd" d="M27.5012 19.9775C25.9385 17.389 22.9035 16.1763 19.8474 15.3C19.0751 15.0995 18.2973 14.9154 17.5396 14.7361C14.0323 13.9061 10.9557 13.178 10.8485 11.393C10.8485 9.65652 12.9787 9.30922 14.2828 9.30922C15.2827 9.30922 16.2826 9.52628 17.1086 10.0906C17.9346 10.6116 18.4128 11.393 18.2389 12.5651H27.2812C27.0639 5.05489 21.0646 2.4502 14.3263 2.4502C7.93579 2.4502 1.80611 5.53242 1.80611 12.6953C1.80611 18.7244 7.02249 20.1905 11.8003 21.5333C11.9764 21.5828 12.1519 21.6321 12.3266 21.6815C17.6737 23.2009 19.0214 23.6785 19.0214 25.2413C19.0214 27.5421 16.6304 28.063 15.0654 28.063C13.283 28.063 11.1963 27.6723 10.5007 25.8056C10.2833 25.1979 10.1529 24.5033 10.1529 23.7653H0.588867C0.588867 33.6631 10.7615 34.9221 14.2394 34.9221C17.7282 34.9221 21.3265 34.2667 24.0466 32.5946L22.7583 30.1804L27.5012 19.9775Z" fill="white"/>
<path d="M38.0497 0.473633L55.543 37.4208H47.1834L38.0497 18.097L32.9411 28.6091H24.7363L38.0497 0.473633Z" fill="white"/>
<path d="M28.1833 37.5257H45.9679L38.2355 20.9775L33.7507 29.9476H24.0078L28.1833 37.5257Z" fill="white"/>
</svg>
