<svg width="38" height="34" viewBox="0 0 38 34" fill="none" xmlns="http://www.w3.org/2000/svg">
<path d="M2.5 0.5H35.5C36.0133 0.5 36.4411 0.683333 36.7833 1.05C37.15 1.39222 37.3333 1.82 37.3333 2.33333V31.6667C37.3333 32.18 37.15 32.62 36.7833 32.9867C36.4411 33.3289 36.0133 33.5 35.5 33.5H2.5C1.98667 33.5 1.54667 33.3289 1.18 32.9867C0.837778 32.62 0.666667 32.18 0.666667 31.6667V2.33333C0.666667 1.82 0.837778 1.39222 1.18 1.05C1.54667 0.683333 1.98667 0.5 2.5 0.5ZM33.6667 8.27333L19.1467 21.29L4.33333 8.23667V29.8333H33.6667V8.27333ZM5.28667 4.16667L19.11 16.3767L32.75 4.16667H5.28667Z" fill="#446FA0"/>
</svg>
