<svg width="36" height="41" viewBox="0 0 36 41" fill="none" xmlns="http://www.w3.org/2000/svg">
<path d="M18 40.4867L6.34 28.8267C4.21333 26.7244 2.78333 24.2311 2.05 21.3467C1.31667 18.56 1.31667 15.7733 2.05 12.9867C2.78333 10.1022 4.20111 7.60889 6.30333 5.50667C8.43 3.38 10.9356 1.95 13.82 1.21667C16.6067 0.483333 19.3933 0.483333 22.18 1.21667C25.0644 1.95 27.5578 3.38 29.66 5.50667C31.7867 7.60889 33.2167 10.1022 33.95 12.9867C34.6833 15.7733 34.6833 18.56 33.95 21.3467C33.2167 24.2311 31.7867 26.7244 29.66 28.8267L18 40.4867ZM27.0933 26.26C28.7311 24.5978 29.8433 22.6544 30.43 20.43C30.9922 18.2544 30.9922 16.0789 30.43 13.9033C29.8433 11.6789 28.7189 9.74778 27.0567 8.11C25.4189 6.44778 23.4878 5.32333 21.2633 4.73666C19.0878 4.17444 16.9122 4.17444 14.7367 4.73666C12.5122 5.32333 10.5689 6.44778 8.90667 8.11C7.26889 9.74778 6.15667 11.6789 5.57 13.9033C5.00778 16.0789 5.00778 18.2544 5.57 20.43C6.15667 22.6544 7.28111 24.5978 8.94333 26.26L18 35.3167L27.0933 26.2233V26.26ZM18 20.8333C16.9978 20.8333 16.13 20.4789 15.3967 19.77C14.6878 19.0367 14.3333 18.1689 14.3333 17.1667C14.3333 16.1644 14.6878 15.3089 15.3967 14.6C16.13 13.8667 16.9978 13.5 18 13.5C19.0022 13.5 19.8578 13.8667 20.5667 14.6C21.3 15.3089 21.6667 16.1644 21.6667 17.1667C21.6667 18.1689 21.3 19.0367 20.5667 19.77C19.8578 20.4789 19.0022 20.8333 18 20.8333Z" fill="#446FA0"/>
</svg>
