<svg width="37" height="37" viewBox="0 0 37 37" fill="none" xmlns="http://www.w3.org/2000/svg">
<path d="M17.877 15.2051C15.627 15.2051 13.834 17.0332 13.834 19.248C13.834 21.498 15.627 23.291 17.877 23.291C20.0918 23.291 21.9199 21.498 21.9199 19.248C21.9199 17.0332 20.0918 15.2051 17.877 15.2051ZM17.877 21.8848C16.4355 21.8848 15.2402 20.7246 15.2402 19.248C15.2402 17.8066 16.4004 16.6465 17.877 16.6465C19.3184 16.6465 20.4785 17.8066 20.4785 19.248C20.4785 20.7246 19.3184 21.8848 17.877 21.8848ZM23.0098 15.0645C23.0098 14.5371 22.5879 14.1152 22.0605 14.1152C21.5332 14.1152 21.1113 14.5371 21.1113 15.0645C21.1113 15.5918 21.5332 16.0137 22.0605 16.0137C22.5879 16.0137 23.0098 15.5918 23.0098 15.0645ZM25.6816 16.0137C25.6113 14.748 25.3301 13.623 24.416 12.709C23.502 11.7949 22.377 11.5137 21.1113 11.4434C19.8105 11.373 15.9082 11.373 14.6074 11.4434C13.3418 11.5137 12.252 11.7949 11.3027 12.709C10.3887 13.623 10.1074 14.748 10.0371 16.0137C9.9668 17.3145 9.9668 21.2168 10.0371 22.5176C10.1074 23.7832 10.3887 24.873 11.3027 25.8223C12.252 26.7363 13.3418 27.0176 14.6074 27.0879C15.9082 27.1582 19.8105 27.1582 21.1113 27.0879C22.377 27.0176 23.502 26.7363 24.416 25.8223C25.3301 24.873 25.6113 23.7832 25.6816 22.5176C25.752 21.2168 25.752 17.3145 25.6816 16.0137ZM23.9941 23.8887C23.748 24.5918 23.1855 25.1191 22.5176 25.4004C21.4629 25.8223 19.002 25.7168 17.877 25.7168C16.7168 25.7168 14.2559 25.8223 13.2363 25.4004C12.5332 25.1191 12.0059 24.5918 11.7246 23.8887C11.3027 22.8691 11.4082 20.4082 11.4082 19.248C11.4082 18.123 11.3027 15.6621 11.7246 14.6074C12.0059 13.9395 12.5332 13.4121 13.2363 13.1309C14.2559 12.709 16.7168 12.8145 17.877 12.8145C19.002 12.8145 21.4629 12.709 22.5176 13.1309C23.1855 13.377 23.7129 13.9395 23.9941 14.6074C24.416 15.6621 24.3105 18.123 24.3105 19.248C24.3105 20.4082 24.416 22.8691 23.9941 23.8887Z" fill="currentColor"/>
<circle cx="18.5" cy="18.5" r="18" stroke="currentColor"/>
</svg>
