<svg width="38" height="37" viewBox="0 0 38 37" fill="none" xmlns="http://www.w3.org/2000/svg">
<path d="M25.625 10.375H12.0898C11.4922 10.375 11 10.9023 11 11.5352V25C11 25.6328 11.4922 26.125 12.0898 26.125H25.625C26.2227 26.125 26.75 25.6328 26.75 25V11.5352C26.75 10.9023 26.2227 10.375 25.625 10.375ZM15.7461 23.875H13.4258V16.3867H15.7461V23.875ZM14.5859 15.332C13.8125 15.332 13.2148 14.7344 13.2148 13.9961C13.2148 13.2578 13.8125 12.625 14.5859 12.625C15.3242 12.625 15.9219 13.2578 15.9219 13.9961C15.9219 14.7344 15.3242 15.332 14.5859 15.332ZM24.5 23.875H22.1445V20.2188C22.1445 19.375 22.1445 18.25 20.9492 18.25C19.7188 18.25 19.543 19.1992 19.543 20.1836V23.875H17.2227V16.3867H19.4375V17.4062H19.4727C19.7891 16.8086 20.5625 16.1758 21.6875 16.1758C24.043 16.1758 24.5 17.7578 24.5 19.7617V23.875Z" fill="currentColor"/>
<path d="M37.5 18.5C37.5 28.4286 29.2299 36.5 19 36.5C8.77008 36.5 0.5 28.4286 0.5 18.5C0.5 8.57136 8.77008 0.5 19 0.5C29.2299 0.5 37.5 8.57136 37.5 18.5Z" stroke="currentColor"/>
</svg>
