<svg width="18" height="18" viewBox="0 0 18 18" fill="none" xmlns="http://www.w3.org/2000/svg">
<path d="M9.00001 0C5.69167 0 3 2.69167 3 6.00001C3 6.99318 3.24831 7.9779 3.72035 8.85132L8.6719 17.8066C8.73782 17.926 8.86343 18 9.00001 18C9.13659 18 9.26221 17.926 9.32812 17.8066L14.2815 8.84837C14.7517 7.9779 15 6.99314 15 5.99998C15 2.69167 12.3084 0 9.00001 0ZM13.6234 8.48841L9.00001 16.8501L4.37844 8.49171C3.96718 7.73072 3.75002 6.86904 3.75002 6.00001C3.75002 3.10511 6.10514 0.750023 9.00001 0.750023C11.8949 0.750023 14.25 3.10514 14.25 6.00001C14.25 6.869 14.0328 7.73072 13.6234 8.48841Z" fill="white"/>
<path d="M8.99998 3C7.34581 3 6 4.34582 6 5.99999C6 7.65419 7.34581 9.00001 8.99998 9.00001C10.6542 9.00001 12 7.65419 12 6.00002C12 4.34585 10.6542 3 8.99998 3ZM8.99998 8.25002C7.75925 8.25002 6.74999 7.24076 6.74999 6.00002C6.74999 4.75929 7.75925 3.75002 8.99998 3.75002C10.2407 3.75002 11.25 4.75929 11.25 6.00002C11.25 7.24072 10.2407 8.25002 8.99998 8.25002Z" fill="white"/>
</svg>
