<svg width="40" height="40" viewBox="0 0 40 40" fill="none" xmlns="http://www.w3.org/2000/svg">
<circle cx="20" cy="20" r="20" fill="#446FA0"/>
<path d="M15.5 19.5C17.8828 19.5 19.875 17.5469 19.875 15.125C19.875 12.7422 17.8828 10.75 15.5 10.75C13.0781 10.75 11.125 12.7422 11.125 15.125C11.125 17.5469 13.0781 19.5 15.5 19.5ZM18.4688 20.75H18.1562C17.3359 21.1406 16.4375 21.375 15.5 21.375C14.5234 21.375 13.625 21.1406 12.8047 20.75H12.4922C9.99219 20.75 8 22.7812 8 25.2812V26.375C8 27.4297 8.82031 28.25 9.875 28.25H21.125C22.1406 28.25 23 27.4297 23 26.375V25.2812C23 22.7812 20.9688 20.75 18.4688 20.75ZM26.75 19.5C28.8203 19.5 30.5 17.8203 30.5 15.75C30.5 13.6797 28.8203 12 26.75 12C24.6797 12 23 13.6797 23 15.75C23 17.8203 24.6797 19.5 26.75 19.5ZM28.625 20.75H28.4688C27.9219 20.9453 27.3359 21.0625 26.75 21.0625C26.125 21.0625 25.5391 20.9453 24.9922 20.75H24.875C24.0547 20.75 23.3125 20.9844 22.6875 21.375C23.625 22.3906 24.25 23.7578 24.25 25.2812V26.7656C24.25 26.8438 24.2109 26.9219 24.2109 27H31.125C32.1406 27 33 26.1797 33 25.125C33 22.7422 31.0078 20.75 28.625 20.75Z" fill="white"/>
</svg>
