<svg width="40" height="40" viewBox="0 0 40 40" fill="none" xmlns="http://www.w3.org/2000/svg">
<circle cx="20" cy="20" r="20" fill="#446FA0"/>
<path d="M12.375 18.125C13.6055 18.125 14.625 17.1406 14.625 15.875C14.625 14.6445 13.6055 13.625 12.375 13.625C11.1094 13.625 10.125 14.6445 10.125 15.875C10.125 17.1406 11.1094 18.125 12.375 18.125ZM28.125 18.125C29.3555 18.125 30.375 17.1406 30.375 15.875C30.375 14.6445 29.3555 13.625 28.125 13.625C26.8594 13.625 25.875 14.6445 25.875 15.875C25.875 17.1406 26.8594 18.125 28.125 18.125ZM29.25 19.25H27C26.3672 19.25 25.8047 19.5312 25.3828 19.918C26.8242 20.6914 27.8086 22.0977 28.0547 23.75H30.375C30.9727 23.75 31.5 23.2578 31.5 22.625V21.5C31.5 20.2695 30.4805 19.25 29.25 19.25ZM20.25 19.25C22.3945 19.25 24.1875 17.4922 24.1875 15.3125C24.1875 13.168 22.3945 11.375 20.25 11.375C18.0703 11.375 16.3125 13.168 16.3125 15.3125C16.3125 17.4922 18.0703 19.25 20.25 19.25ZM22.9219 20.375H22.6406C21.9023 20.7266 21.0938 20.9375 20.25 20.9375C19.3711 20.9375 18.5625 20.7266 17.8242 20.375H17.543C15.293 20.375 13.5 22.2031 13.5 24.4531V25.4375C13.5 26.3867 14.2383 27.125 15.1875 27.125H25.3125C26.2266 27.125 27 26.3867 27 25.4375V24.4531C27 22.2031 25.1719 20.375 22.9219 20.375ZM15.082 19.918C14.6602 19.5312 14.0977 19.25 13.5 19.25H11.25C9.98438 19.25 9 20.2695 9 21.5V22.625C9 23.2578 9.49219 23.75 10.125 23.75H12.4102C12.6562 22.0977 13.6406 20.6914 15.082 19.918Z" fill="white"/>
</svg>
