<svg width="40" height="40" viewBox="0 0 40 40" fill="none" xmlns="http://www.w3.org/2000/svg">
<circle cx="20" cy="20" r="20" fill="#446FA0"/>
<g clip-path="url(#clip0_805_1600)">
<path d="M29.215 15.2796C30.0157 14.857 30.8099 14.4411 31.6234 14.0186C31.7644 14.3751 31.8989 14.7184 32.0334 15.0617C32.4882 16.2831 32.7956 17.5375 32.9366 18.8381C33.0262 19.67 33.0327 20.5018 32.9558 21.3403C32.8213 22.839 32.4369 24.2716 31.7708 25.6119C30.432 28.3055 28.5744 30.504 25.9546 31.9499C24.6286 32.6827 23.213 33.0921 21.7205 33.2637C19.8757 33.475 18.063 33.2835 16.263 32.8742C16.199 32.861 16.1349 32.8478 16.058 32.828C15.6673 33.5476 15.2766 34.2672 14.8794 35.0067C13.6688 32.7421 12.471 30.4908 11.2539 28.2197C13.7585 28.1075 16.2438 28.0018 18.7484 27.8896C18.3384 28.629 17.9349 29.3553 17.5057 30.1211C17.8388 30.2201 18.1526 30.3324 18.4729 30.405C19.9782 30.7219 21.4515 30.5436 22.9183 30.1211C26.2492 29.1638 28.7153 26.1202 29.6121 23.6708C30.0989 22.3306 30.2847 20.9508 30.195 19.5313C30.0989 18.0921 29.753 16.7188 29.247 15.3786C29.2278 15.3456 29.2214 15.3192 29.215 15.2796Z" fill="white"/>
<path d="M10.7705 24.7919C9.99544 25.1947 9.22678 25.5974 8.41969 26.0199C8.2083 25.5314 7.97771 25.056 7.79195 24.5609C7.1578 22.8839 6.92079 21.1344 7.01047 19.3518C7.2795 14.1493 10.2453 9.85134 14.6459 7.79809C15.8949 7.2171 17.2017 6.86059 18.566 6.71534C20.2955 6.53048 21.9994 6.68893 23.6712 7.15108C23.8442 7.19729 23.9274 7.16428 24.0107 6.99923C24.3374 6.37203 24.6769 5.75143 25.01 5.13083C25.0356 5.09122 25.0612 5.045 25.0933 4.99219C26.2975 7.25671 27.4953 9.50803 28.7124 11.7792C26.2078 11.8848 23.7225 11.9904 21.2115 12.0961C21.6215 11.3632 22.025 10.6436 22.4478 9.89095C22.1916 9.80513 21.9481 9.7127 21.6983 9.64668C20.8912 9.43541 20.0649 9.4024 19.2386 9.46842C17.8934 9.57405 16.6252 9.93717 15.4081 10.5446C14.2551 11.1256 13.2943 11.9574 12.4359 12.9213C11.347 14.1427 10.5207 15.5292 10.0851 17.1401C9.75203 18.3549 9.67517 19.5961 9.79687 20.8571C9.93139 22.1907 10.2709 23.4715 10.7513 24.7193C10.7577 24.7325 10.7641 24.7523 10.7705 24.7919Z" fill="white"/>
<path d="M26.0949 26.3707C23.6928 26.3707 21.2971 26.3707 18.8887 26.3707C18.8887 22.3368 18.8887 18.3161 18.8887 14.2822C21.2907 14.2822 23.6864 14.2822 26.0949 14.2822C26.0949 18.2963 26.0949 22.3236 26.0949 26.3707ZM22.6936 20.0723C22.8024 20.0393 22.8921 20.0195 22.9754 19.9865C23.2508 19.8808 23.4174 19.6828 23.4366 19.3791C23.4558 19.0688 23.3149 18.8113 23.0394 18.7387C22.6936 18.6462 22.6423 18.435 22.6871 18.1313C22.6936 18.0784 22.6871 18.019 22.6871 17.9266C22.8601 18.0124 23.0074 18.085 23.1612 18.1577C23.2252 18.0454 23.2893 17.9332 23.3725 17.7879C23.1419 17.6889 22.9241 17.5965 22.7064 17.4975C22.7 17.4578 22.7 17.3918 22.6936 17.3258C22.5911 17.3258 22.495 17.3258 22.3925 17.3258C22.3797 17.3918 22.3733 17.4512 22.3669 17.5107C21.8544 17.6757 21.6687 17.8474 21.6495 18.1775C21.6174 18.7122 22.0018 18.8575 22.3797 18.9829C22.3797 19.2074 22.3797 19.4253 22.3797 19.6894C22.1619 19.5771 21.9761 19.4781 21.7712 19.3659C21.7071 19.4649 21.6366 19.5705 21.5598 19.6828C21.7968 19.9072 22.0786 19.9931 22.3669 20.0591C22.3733 20.1845 22.3797 20.2968 22.3797 20.4024C22.495 20.4024 22.5847 20.4024 22.6936 20.4024C22.6936 20.2901 22.6936 20.1845 22.6936 20.0723Z" fill="white"/>
<path d="M26.0949 26.3707C23.6928 26.3707 21.2971 26.3707 18.8887 26.3707C18.8887 22.3368 18.8887 18.3161 18.8887 14.2822C21.2907 14.2822 23.6864 14.2822 26.0949 14.2822C26.0949 18.2963 26.0949 22.3236 26.0949 26.3707ZM22.6936 20.0723C22.8024 20.0393 22.8921 20.0195 22.9754 19.9865C23.2508 19.8808 23.4174 19.6828 23.4366 19.3791C23.4558 19.0688 23.3149 18.8113 23.0394 18.7387C22.6936 18.6462 22.6423 18.435 22.6871 18.1313C22.6936 18.0784 22.6871 18.019 22.6871 17.9266C22.8601 18.0124 23.0074 18.085 23.1612 18.1577C23.2252 18.0454 23.2893 17.9332 23.3725 17.7879C23.1419 17.6889 22.9241 17.5965 22.7064 17.4975C22.7 17.4578 22.7 17.3918 22.6936 17.3258C22.5911 17.3258 22.495 17.3258 22.3925 17.3258C22.3797 17.3918 22.3733 17.4512 22.3669 17.5107C21.8544 17.6757 21.6687 17.8474 21.6495 18.1775C21.6174 18.7122 22.0018 18.8575 22.3797 18.9829C22.3797 19.2074 22.3797 19.4253 22.3797 19.6894C22.1619 19.5771 21.9761 19.4781 21.7712 19.3659C21.7071 19.4649 21.6366 19.5705 21.5598 19.6828C21.7968 19.9072 22.0786 19.9931 22.3669 20.0591C22.3733 20.1845 22.3797 20.2968 22.3797 20.4024C22.495 20.4024 22.5847 20.4024 22.6936 20.4024C22.6936 20.2901 22.6936 20.1845 22.6936 20.0723Z" fill="white"/>
<path d="M13.3672 19.1748C14.9686 19.1748 16.5699 19.1748 18.1713 19.1748C18.1713 21.5978 18.1713 24.0141 18.1713 26.4437C16.5699 26.4437 14.975 26.4437 13.3672 26.4437C13.3672 24.0207 13.3672 21.6044 13.3672 19.1748ZM17.0632 24.9847C17.0632 24.5819 17.0632 24.1858 17.0632 23.7963C16.6788 23.7963 16.3073 23.7963 15.9358 23.7963C15.9358 24.199 15.9358 24.5885 15.9358 24.9847C16.3201 24.9847 16.6916 24.9847 17.0632 24.9847ZM17.0888 20.1783C16.7045 20.1783 16.3329 20.1783 15.955 20.1783C15.955 20.5745 15.955 20.9574 15.955 21.3469C16.3393 21.3469 16.7109 21.3469 17.0888 21.3469C17.0888 20.9574 17.0888 20.5745 17.0888 20.1783ZM15.9678 21.9675C15.9678 22.3702 15.9678 22.7597 15.9678 23.1559C16.3458 23.1559 16.7109 23.1559 17.0888 23.1559C17.0888 22.7597 17.0888 22.3702 17.0888 21.9675C16.7173 21.9675 16.3458 21.9675 15.9678 21.9675Z" fill="white"/>
<path d="M22.3735 18.5014C22.1429 18.4354 22.0596 18.3495 22.0788 18.1845C22.0917 18.0392 22.1813 17.96 22.3735 17.9336C22.3735 18.1185 22.3735 18.3033 22.3735 18.5014Z" fill="white"/>
<path d="M22.6934 19.6572C22.6934 19.4657 22.6934 19.2676 22.6934 19.0762C22.9047 19.1224 23.0072 19.2148 23.0008 19.3733C23.0008 19.5317 22.8983 19.6241 22.6934 19.6572Z" fill="white"/>
<path d="M22.6934 19.6572C22.6934 19.4657 22.6934 19.2676 22.6934 19.0762C22.9047 19.1224 23.0072 19.2148 23.0008 19.3733C23.0008 19.5317 22.8983 19.6241 22.6934 19.6572Z" fill="white"/>
</g>
<defs>
<clipPath id="clip0_805_1600">
<rect width="26" height="30" fill="white" transform="translate(7 5)"/>
</clipPath>
</defs>
</svg>
