<svg width="40" height="40" viewBox="0 0 40 40" fill="none" xmlns="http://www.w3.org/2000/svg">
<circle cx="20" cy="20" r="20" fill="#446FA0"/>
<path d="M29.375 24.5H12.5V12.625C12.5 12.3125 12.1875 12 11.875 12H10.625C10.2734 12 10 12.3125 10 12.625V25.75C10 26.4531 10.5469 27 11.25 27H29.375C29.6875 27 30 26.7266 30 26.375V25.125C30 24.8125 29.6875 24.5 29.375 24.5ZM28.125 13.25H23.4766C22.6562 13.25 22.2266 14.2656 22.8125 14.8516L24.1016 16.1406L21.25 18.9922L18.3594 16.1406C17.8906 15.6328 17.0703 15.6328 16.6016 16.1406L13.9062 18.8359C13.6719 19.0703 13.6719 19.4609 13.9062 19.6953L14.8047 20.5938C15.0391 20.8281 15.4297 20.8281 15.6641 20.5938L17.5 18.7969L20.3516 21.6484C20.8203 22.1562 21.6406 22.1562 22.1094 21.6484L25.8594 17.8984L27.1484 19.1875C27.7344 19.7734 28.7109 19.3438 28.7109 18.5234V13.875C28.75 13.5625 28.4375 13.25 28.125 13.25Z" fill="white"/>
</svg>
