<svg width="40" height="40" viewBox="0 0 40 40" fill="none" xmlns="http://www.w3.org/2000/svg">
<circle cx="20" cy="20" r="20" fill="#446FA0"/>
<path d="M29.3955 11.7295H27.833V27.3545H29.3955C29.971 27.3545 30.4372 26.8883 30.4372 26.3128V12.7712C30.4372 12.1956 29.971 11.7295 29.3955 11.7295Z" fill="white"/>
<path d="M28.3542 26.3122V10.6872C28.3542 10.1117 27.888 9.64551 27.3125 9.64551H9.60417C9.02865 9.64551 8.5625 10.1117 8.5625 10.6872V26.3122C8.5625 26.8877 9.02865 27.3538 9.60417 27.3538H29.3958C28.8203 27.3538 28.3542 26.8877 28.3542 26.3122Z" fill="white"/>
<path d="M26.2708 14.8538H10.6458C10.3583 14.8538 10.125 14.6205 10.125 14.333V13.2913C10.125 13.0038 10.3583 12.7705 10.6458 12.7705H26.2708C26.5583 12.7705 26.7917 13.0038 26.7917 13.2913V14.333C26.7917 14.6205 26.5583 14.8538 26.2708 14.8538Z" fill="#446FA0"/>
<path d="M16.8958 24.2292H10.6458C10.3583 24.2292 10.125 23.9958 10.125 23.7083V17.4583C10.125 17.1708 10.3583 16.9375 10.6458 16.9375H16.8958C17.1833 16.9375 17.4167 17.1708 17.4167 17.4583V23.7083C17.4167 23.9958 17.1833 24.2292 16.8958 24.2292Z" fill="#446FA0"/>
<path d="M26.7917 17.5H19.5V19.0625H26.7917V17.5Z" fill="#446FA0"/>
<path d="M26.2708 21.625H20.0208C19.7333 21.625 19.5 21.3917 19.5 21.1042V20.0625H26.7917V21.1042C26.7917 21.3917 26.5583 21.625 26.2708 21.625Z" fill="#446FA0"/>
</svg>
