<svg width="18" height="18" viewBox="0 0 18 18" fill="none" xmlns="http://www.w3.org/2000/svg">
<g opacity="0.5">
<path d="M17.0238 14.1447L11.7619 8.89038L17.0238 3.63604C17.7486 2.9112 17.7486 1.73469 17.0256 1.00788C16.2989 0.279299 15.1224 0.281173 14.3957 1.00601L9.13022 6.2641L3.86473 1.00601C3.13802 0.281173 1.96151 0.279299 1.2348 1.00788C0.509964 1.7346 0.509963 2.91111 1.23667 3.63604L6.49851 8.89038L1.23667 14.1447C0.509963 14.8696 0.509964 16.0461 1.2348 16.7729C1.59726 17.1371 2.0749 17.3174 2.55075 17.3174C3.0266 17.3174 3.50236 17.1352 3.86483 16.7746L9.13031 11.5166L14.3958 16.7746C14.7583 17.1371 15.234 17.3174 15.7099 17.3174C16.1857 17.3174 16.6634 17.1352 17.0258 16.7729C17.7505 16.0461 17.7505 14.8696 17.0238 14.1447Z" fill="white"/>
</g>
</svg>
