<svg width="34" height="34" viewBox="0 0 34 34" fill="none" xmlns="http://www.w3.org/2000/svg">
<path d="M12.16 14.58C13.0156 16.0956 14.0544 17.4767 15.2767 18.7233C16.5233 19.9456 17.9044 20.9844 19.42 21.84L21.0333 19.5667C21.3022 19.1756 21.6567 18.9311 22.0967 18.8333C22.5611 18.7356 23.0011 18.7967 23.4167 19.0167C26.0322 20.4589 28.8311 21.29 31.8133 21.51C32.2778 21.5589 32.6689 21.7544 32.9867 22.0967C33.3289 22.4389 33.5 22.8544 33.5 23.3433V31.52C33.5 31.9844 33.3411 32.4 33.0233 32.7667C32.7056 33.1089 32.3144 33.3044 31.85 33.3533C30.8967 33.4511 29.9189 33.5 28.9167 33.5C25.0544 33.5 21.3633 32.7544 17.8433 31.2633C14.4456 29.8211 11.4389 27.7922 8.82333 25.1767C6.20778 22.5611 4.17889 19.5544 2.73667 16.1567C1.24556 12.6367 0.5 8.94556 0.5 5.08333C0.5 4.08111 0.548889 3.10333 0.646667 2.15C0.695556 1.68555 0.891111 1.29444 1.23333 0.976666C1.6 0.658889 2.01556 0.5 2.48 0.5H10.6567C11.1456 0.5 11.5611 0.671111 11.9033 1.01333C12.2456 1.33111 12.4411 1.72222 12.49 2.18667C12.71 5.16889 13.5411 7.96778 14.9833 10.5833C15.2033 10.9989 15.2644 11.4389 15.1667 11.9033C15.0689 12.3433 14.8244 12.6978 14.4333 12.9667L12.16 14.58ZM7.54 13.37L11.0233 10.8767C10.0456 8.75 9.37333 6.51333 9.00667 4.16667H4.20333L4.16667 5.08333C4.16667 8.43222 4.81444 11.6467 6.11 14.7267C7.35667 17.6844 9.11667 20.3122 11.39 22.61C13.6878 24.8833 16.3156 26.6433 19.2733 27.89C22.3533 29.1856 25.5678 29.8333 28.9167 29.8333H29.8333V24.9933C27.4867 24.6267 25.25 23.9544 23.1233 22.9767L20.63 26.46C19.6278 26.0689 18.65 25.6044 17.6967 25.0667L17.5867 25.03C15.8022 24.0033 14.1767 22.7567 12.71 21.29C11.2433 19.8233 9.99667 18.1978 8.97 16.4133L8.93333 16.3033C8.39556 15.35 7.93111 14.3722 7.54 13.37Z" fill="#446FA0"/>
</svg>
