<svg width="30" height="30" viewBox="0 0 30 30" fill="none" xmlns="http://www.w3.org/2000/svg">
<circle cx="15" cy="15" r="15" fill="white"/>
<path d="M14.375 22.6875C14.6562 23.125 15.3125 23.125 15.5938 22.6875C20.1562 16.125 21 15.4375 21 13C21 9.6875 18.3125 7 15 7C11.6562 7 9 9.6875 9 13C9 15.4375 9.8125 16.125 14.375 22.6875ZM15 15.5C13.5938 15.5 12.5 14.4062 12.5 13C12.5 11.625 13.5938 10.5 15 10.5C16.375 10.5 17.5 11.625 17.5 13C17.5 14.4062 16.375 15.5 15 15.5Z" fill="#223C60"/>
</svg>
