<svg width="40" height="40" viewBox="0 0 40 40" fill="none" xmlns="http://www.w3.org/2000/svg">
<circle cx="20" cy="20" r="20" fill="#446FA0"/>
<path d="M30.1094 19.7578C28.2109 16.0312 24.4141 13.5 20.125 13.5C15.8008 13.5 12.0039 16.0312 10.1055 19.7578C10.0352 19.8984 10 20.1094 10 20.2852C10 20.4258 10.0352 20.6367 10.1055 20.7773C12.0039 24.5039 15.8008 27 20.125 27C24.4141 27 28.2109 24.5039 30.1094 20.7773C30.1797 20.6367 30.2148 20.4258 30.2148 20.25C30.2148 20.1094 30.1797 19.8984 30.1094 19.7578ZM20.125 25.3125C17.3125 25.3125 15.0625 23.0625 15.0625 20.25C15.0625 17.4727 17.3125 15.1875 20.125 15.1875C22.9023 15.1875 25.1875 17.4727 25.1875 20.25V20.2852C25.1875 23.0625 22.9023 25.3125 20.125 25.3125ZM20.125 16.875C19.8438 16.9102 19.457 16.9453 19.2109 17.0156C19.3867 17.2617 19.5625 17.7188 19.5625 18.0352C19.5625 18.9492 18.7891 19.6875 17.875 19.6875C17.5586 19.6875 17.1016 19.5469 16.8555 19.3711C16.7852 19.6172 16.75 20.0039 16.75 20.25C16.75 22.1133 18.2617 23.625 20.125 23.625C21.9883 23.625 23.5 22.1133 23.5 20.25C23.5 18.3867 21.9883 16.875 20.125 16.875Z" fill="white"/>
</svg>
